# xmcd
#
# Track frame offsets:
#	150
#	22634
#	38209
#	53229
#	70123
#	87896
#	109171
#	124406
#	146918
#	163686
#	180746
#	197839
#	211338
#	227572
#	248548
#	266554
#	281138
#	294817
#	311177
#	327949
#
# Disc length: 4625 seconds
#
# Revision: 1
# Processed by: cddbd v1.5.2PL0 Copyright (c) Steve Scherf et al.
# Submitted via: audiograbber 1.83.01
#
DISCID=25120f14
DTITLE=Various Artist - Cream of Country Volume 17
DYEAR=2013
DGENRE=Country
TTITLE0=Darius Rucker - Wagon Wheel
TTITLE1=Dierks Bentley - Tip It On Back
TTITLE2=Eric Church - Like Jesus Does
TTITLE3=Little Big Town - Tornado
TTITLE4=Luke Bryan - Crash My Party
TTITLE5=Brad Paisley - Beat This Summer
TTITLE6=Billy Currington - Hey Girl
TTITLE7=Carrie Underwood - Two Black Cadillacs
TTITLE8=Florida Georgia Line - Get Your Shine On
TTITLE9=Kenny Chesney - Pirate Flag
TTITLE10=Gary Allan - Every Storm (Runs Out Of Rain)
TTITLE11=Miranda Lambert - Mama's Broken Heart
TTITLE12=Blake Shelton - Sue Be Cool If You Did
TTITLE13=Zac Brown Band - Goodbye In Her Eyes
TTITLE14=Hunter Hayes - I Want Crazy
TTITLE15=The Band Perry - Better Dig Two
TTITLE16=Brett Eldredge - Don't Ya
TTITLE17=Kip Moore - Hey Pretty Girl
TTITLE18=Casey James - Crying On A Suitcase
TTITLE19=Sheryl Crow - Easy
EXTD=
EXTT0=
EXTT1=
EXTT2=
EXTT3=
EXTT4=
EXTT5=
EXTT6=
EXTT7=
EXTT8=
EXTT9=
EXTT10=
EXTT11=
EXTT12=
EXTT13=
EXTT14=
EXTT15=
EXTT16=
EXTT17=
EXTT18=
EXTT19=
PLAYORDER=
